<svg width="50" height="46" viewBox="0 0 50 46" fill="none" xmlns="http://www.w3.org/2000/svg">
<path d="M0 32.212C0 32.6164 0.327633 32.944 0.731977 32.944H7.8953C8.16974 32.944 8.4357 32.8638 8.66466 32.7118L9.02108 32.475C9.92903 31.8719 10.985 31.5532 12.0748 31.5532H17.1762C18.2517 31.5532 19.2627 31.9719 20.0231 32.7324C20.1603 32.8697 20.3465 32.9468 20.5407 32.9468H24.1741C24.5784 32.9468 24.9061 32.6192 24.9061 32.2149C24.9061 31.8105 24.5784 31.4829 24.1741 31.4829H20.8318C19.8248 30.5819 18.5383 30.0892 17.1763 30.0892H12.0749C10.6959 30.0892 9.35994 30.4926 8.21122 31.2556L7.87315 31.4801H0.731977C0.327633 31.4801 0 31.8077 0 32.212H0Z" fill="white"/>
<path d="M46.0229 30.7951L32.8824 35.4165C32.915 35.2289 32.933 35.0363 32.933 34.8395C32.933 32.9887 31.4272 31.4829 29.5763 31.4829H27.2934C26.889 31.4829 26.5614 31.8105 26.5614 32.2149C26.5614 32.6192 26.889 32.9468 27.2934 32.9468H29.5763C30.6199 32.9468 31.4691 33.7958 31.4691 34.8395C31.4691 35.8832 30.62 36.7323 29.5763 36.7323H22.2494C21.9107 36.7323 21.5924 36.8643 21.3528 37.1037L20.0929 38.3636C19.8069 38.6494 19.8069 39.1129 20.0928 39.3987C20.2358 39.5417 20.423 39.6131 20.6104 39.6131C20.7977 39.6131 20.9851 39.5417 21.128 39.3988L22.3306 38.1963H29.5763C30.4304 38.1963 31.2107 37.8751 31.8037 37.3478L46.5086 32.1763C47.2276 31.9232 48.0112 32.2544 48.331 32.9463C48.6618 33.6619 48.3726 34.5064 47.6725 34.869L31.8104 43.0833C30.8818 43.5642 29.8383 43.8184 28.7926 43.8184H15.1397C13.5688 43.8184 12.048 43.2539 10.8575 42.2288L10.4268 41.8578C10.2939 41.7433 10.1244 41.6805 9.94903 41.6805H0.731977C0.327633 41.6805 0 42.0081 0 42.4125C0 42.8168 0.327633 43.1444 0.731977 43.1444H9.67732L9.90219 43.3381C11.3583 44.5918 13.2184 45.2823 15.1397 45.2823H28.7926C30.0715 45.2823 31.348 44.9714 32.4836 44.3833L48.3457 36.169C49.7427 35.4454 50.32 33.7599 49.6598 32.332C49.0215 30.9512 47.4582 30.2899 46.0229 30.7951Z" fill="white"/>
<path d="M49.269 13.056H42.1056C41.8312 13.056 41.5652 13.1362 41.3362 13.2883L40.9799 13.5251C40.0718 14.1282 39.0159 14.4469 37.9261 14.4469H32.8248C31.7492 14.4469 30.7382 14.0281 29.9778 13.2676C29.8405 13.1304 29.6544 13.0533 29.4602 13.0533H20.4247C19.3811 13.0533 18.5319 12.2042 18.5319 11.1605C18.5319 10.1168 19.381 9.26768 20.4247 9.26768H27.7517C28.0905 9.26768 28.4089 9.13563 28.6481 8.89632L29.9081 7.63644C30.194 7.35058 30.194 6.88709 29.9082 6.60133C29.6223 6.31556 29.1588 6.31537 28.873 6.60123L27.6705 7.80372H20.4248C19.5707 7.80372 18.7905 8.12491 18.1974 8.65204L3.49247 13.8239C2.77338 14.0767 1.98977 13.7457 1.66985 13.0538C1.339 12.3382 1.62828 11.4937 2.32834 11.1311L12.8015 5.70763C13.1604 5.52171 13.3007 5.07999 13.1149 4.72102C12.9289 4.36206 12.4871 4.22211 12.1282 4.40764L1.65511 9.8311C0.258111 10.5547 -0.319175 12.2402 0.341069 13.6681C0.834909 14.7364 1.88252 15.3737 2.99619 15.3736C3.32188 15.3736 3.65331 15.3191 3.97812 15.2049L17.1186 10.5833C17.086 10.771 17.0679 10.9635 17.0679 11.1604C17.0679 13.0113 18.5737 14.5171 20.4247 14.5171H29.1693C30.1764 15.418 31.4628 15.9107 32.8248 15.9107H37.9261C39.305 15.9107 40.641 15.5074 41.7899 14.7444L42.1279 14.5199H49.2691C49.6734 14.5199 50.001 14.1922 50.001 13.7879C50.001 13.3835 49.6732 13.056 49.269 13.056Z" fill="white"/>
<path d="M15.2366 4.35376C15.35 4.35376 15.4651 4.32731 15.5726 4.27158L18.1886 2.91674C19.1174 2.43588 20.1609 2.18174 21.2066 2.18174H34.8594C36.4305 2.18174 37.9513 2.74634 39.1418 3.7715L39.5726 4.14237C39.7053 4.25675 39.8748 4.3196 40.0501 4.3196H49.2672C49.6715 4.3196 49.9991 3.99197 49.9991 3.58763C49.9991 3.18328 49.6715 2.85565 49.2672 2.85565H40.3217L40.097 2.66221C38.641 1.40829 36.7809 0.717789 34.8594 0.717789H21.2066C19.9277 0.717789 18.6514 1.02873 17.5155 1.61675L14.8994 2.97159C14.5404 3.15752 14.4002 3.59924 14.586 3.9582C14.7162 4.20951 14.9718 4.35376 15.2366 4.35376Z" fill="white"/>
<path d="M24.9652 28.742C24.9668 28.742 24.9685 28.7419 24.9702 28.7419C25.382 28.7404 25.7773 28.565 26.0545 28.2607L30.1122 23.8086C31.4045 22.3906 31.3542 20.2171 29.995 18.8578L29.9882 18.851C28.5932 17.4563 26.3253 17.4538 24.9273 18.8438L24.9253 18.8417C23.5278 17.4502 21.2567 17.4525 19.8622 18.8469C18.496 20.2132 18.4531 22.3949 19.7647 23.8136L23.8825 28.2684C24.1608 28.5695 24.555 28.742 24.9652 28.742ZM20.8974 19.8822C21.3103 19.4693 21.8534 19.2626 22.3963 19.2626C22.9379 19.2626 23.4794 19.468 23.8921 19.8791L24.4116 20.3966C24.6976 20.6811 25.1601 20.6809 25.4458 20.3955L25.9551 19.8862C26.7815 19.0597 28.1264 19.0596 28.9555 19.8888L28.9623 19.8956C29.7649 20.698 29.7945 21.9837 29.0302 22.8224L24.9725 27.2745H24.9575L20.8397 22.8197C20.0639 21.9808 20.0893 20.6902 20.8974 19.8822Z" fill="white"/>
<path d="M36.0598 29.9181C35.7298 29.6845 35.2729 29.7626 35.0395 30.0926C34.677 30.6047 34.2748 31.0906 33.8441 31.5366C33.5633 31.8274 33.5714 32.2909 33.8622 32.5716C34.0043 32.7087 34.1876 32.7769 34.3706 32.7769C34.5623 32.7769 34.7537 32.7021 34.8972 32.5534C35.3792 32.0542 35.8291 31.5108 36.2343 30.9383C36.468 30.6084 36.3898 30.1517 36.0598 29.9181Z" fill="white"/>
<path d="M36.8548 28.4511C36.9428 28.4858 37.0336 28.5022 37.1229 28.5022C37.4148 28.5022 37.6906 28.3263 37.8041 28.0383C38.4366 26.4325 38.7574 24.7374 38.7574 23C38.7574 21.2144 38.4192 19.4755 37.7524 17.8315C37.6004 17.4569 37.1734 17.2765 36.7988 17.4283C36.4243 17.5804 36.2437 18.0073 36.3957 18.3819C36.9914 19.8502 37.2934 21.4041 37.2934 23C37.2934 24.5529 37.0068 26.0675 36.4418 27.5017C36.2939 27.878 36.4787 28.3029 36.8548 28.4511Z" fill="white"/>
<path d="M16.1363 13.4283C15.8454 13.1475 15.3821 13.1557 15.1014 13.4466C12.6127 16.0243 11.2422 19.4172 11.2422 23.0001C11.2422 24.7856 11.5804 26.5245 12.2472 28.1685C12.3627 28.453 12.6366 28.6255 12.9258 28.6255C13.0174 28.6255 13.1107 28.6082 13.2007 28.5717C13.5752 28.4196 13.7558 27.9927 13.6038 27.6181C13.0081 26.1498 12.7061 24.596 12.7061 23.0001C12.7061 19.7985 13.9308 16.7668 16.1545 14.4633C16.4352 14.1725 16.4271 13.7091 16.1363 13.4283Z" fill="white"/>
<path d="M6.47713 18.2451C6.08225 18.1607 5.69265 18.4114 5.60744 18.8066C5.31202 20.1789 5.16211 21.5898 5.16211 23.0001C5.16211 24.2937 5.2885 25.5908 5.53786 26.8553C5.60666 27.2041 5.91263 27.4458 6.25529 27.4458C6.30214 27.4458 6.34986 27.4413 6.39769 27.4318C6.79422 27.3536 7.05237 26.9687 6.97419 26.572C6.74328 25.4007 6.62616 24.1988 6.62616 23C6.62616 21.693 6.76494 20.3859 7.0387 19.1147C7.12371 18.7195 6.8723 18.3302 6.47713 18.2451Z" fill="white"/>
<path d="M43.6028 27.4317C43.6506 27.4412 43.6983 27.4457 43.7453 27.4457C44.0879 27.4457 44.3938 27.204 44.4627 26.8553C44.7123 25.5911 44.8389 24.2939 44.8389 23C44.8389 21.59 44.6889 20.179 44.393 18.8064C44.3077 18.4111 43.9178 18.1606 43.5233 18.245C43.128 18.3302 42.8768 18.7196 42.9619 19.1148C43.236 20.3862 43.3749 21.6934 43.3749 23C43.3749 24.1988 43.2577 25.4006 43.0265 26.5719C42.9481 26.9684 43.2061 27.3535 43.6028 27.4317Z" fill="white"/>
</svg>
